<?xml version="1.0" standalone="no"?>
<!DOCTYPE svg PUBLIC "-//W3C//DTD SVG 20010904//EN"
 "http://www.w3.org/TR/2001/REC-SVG-20010904/DTD/svg10.dtd">
<svg version="1.0" xmlns="http://www.w3.org/2000/svg"
 width="192.000000pt" height="94.000000pt" viewBox="0 0 192.000000 94.000000"
 preserveAspectRatio="xMidYMid meet">
<metadata>
Created by potrace 1.15, written by Peter Selinger 2001-2017
</metadata>
<g transform="translate(0.000000,94.000000) scale(0.100000,-0.100000)"
fill="#000000" stroke="none">
<path d="M913 915 c-114 -35 -194 -114 -378 -370 -139 -193 -231 -273 -332
-290 -94 -15 -153 26 -153 106 0 76 4 79 57 52 55 -27 125 -30 183 -7 95 38
76 141 -30 165 -50 11 -131 -8 -173 -41 -35 -28 -40 -25 -32 18 16 88 76 161
167 202 l42 19 57 -54 c68 -63 134 -92 176 -78 37 13 52 53 30 86 -28 43 -83
62 -178 62 -81 1 -88 2 -124 33 -75 61 -147 79 -193 46 -44 -30 -18 -94 38
-94 39 0 60 9 60 28 0 13 -3 13 -19 -2 -29 -26 -65 -17 -69 17 -9 78 84 75
183 -6 l30 -25 -39 -16 c-21 -9 -41 -16 -45 -16 -12 -1 -81 -58 -103 -85 -30
-38 -49 -116 -38 -155 6 -21 4 -39 -7 -61 -26 -51 -27 -109 -4 -146 32 -52 65
-67 141 -67 115 0 220 69 328 217 l43 57 54 0 c29 0 56 -4 60 -9 5 -10 -64
-177 -91 -218 -8 -13 -23 -23 -34 -23 -11 0 -20 -4 -20 -10 0 -6 33 -10 83 -9
70 1 78 3 55 12 -16 6 -28 15 -28 20 0 11 151 365 209 491 55 120 101 154 209
155 116 2 199 -79 119 -117 -28 -14 -34 -26 -17 -37 15 -10 50 14 60 41 16 41
-10 88 -59 107 -50 20 -158 21 -218 2z m-159 -177 c-20 -46 -47 -111 -61 -145
l-25 -63 -59 0 c-32 0 -59 3 -59 6 0 22 213 284 231 284 4 0 -8 -37 -27 -82z
m-355 31 c58 -12 101 -48 101 -83 0 -19 -7 -27 -25 -32 -40 -10 -69 2 -135 58
-51 44 -58 53 -43 59 26 11 46 10 102 -2z m-101 -225 c30 -21 30 -73 -2 -103
-47 -44 -125 -49 -189 -13 -43 25 -32 59 34 108 39 29 121 33 157 8z"/>
<path d="M1200 544 c-79 -34 -170 -164 -170 -241 0 -91 111 -93 199 -5 77 78
118 199 80 238 -22 22 -71 25 -109 8z m60 -34 c24 -24 25 -51 4 -114 -19 -56
-69 -112 -109 -122 -23 -6 -32 -2 -47 16 -22 27 -22 42 -3 108 18 60 80 132
113 132 12 0 31 -9 42 -20z"/>
<path d="M891 533 c-78 -39 -181 -178 -181 -244 0 -29 23 -59 43 -59 28 1 98
41 136 79 34 34 39 37 30 15 -19 -51 -90 -164 -99 -159 -6 3 -7 -1 -4 -9 8
-20 -96 -121 -141 -136 -20 -7 -47 -9 -61 -6 -73 19 32 117 145 136 l46 8 -41
1 c-128 4 -271 -108 -192 -150 29 -16 116 -5 164 19 22 11 59 41 84 66 24 25
50 46 57 46 13 0 15 -5 17 -50 1 -15 8 -26 19 -28 30 -6 22 52 -10 76 l-26 19
30 49 c16 27 65 115 107 197 l78 147 -31 0 c-17 0 -31 -5 -31 -12 0 -9 -3 -9
-12 0 -17 17 -87 14 -127 -5z m112 -15 c20 -32 -95 -188 -166 -224 -60 -32
-75 12 -33 95 61 120 164 186 199 129z"/>
<path d="M1398 543 c6 -2 12 -9 12 -14 0 -5 -27 -70 -60 -145 -33 -74 -60
-139 -60 -145 0 -5 10 -9 23 -9 17 0 29 14 56 66 66 128 138 198 216 211 25 4
35 11 35 24 0 14 -7 19 -26 19 -38 0 -86 -33 -130 -88 -57 -71 -58 -71 -29 -7
44 97 44 95 -6 94 -24 0 -38 -3 -31 -6z"/>
<path d="M1703 534 c-39 -19 -118 -96 -148 -144 -29 -47 -48 -105 -40 -129 15
-48 100 -24 172 48 l42 42 -10 -37 c-13 -44 -4 -84 17 -84 26 0 70 28 103 66
37 42 35 57 -2 20 -25 -25 -47 -32 -59 -20 -12 11 25 95 76 173 l54 81 -27 0
c-15 0 -33 -6 -40 -12 -11 -10 -14 -10 -18 0 -7 17 -81 15 -120 -4z m103 -9
c21 -55 -160 -261 -212 -241 -47 18 46 186 131 238 36 22 74 23 81 3z"/>
</g>
</svg>
