<?xml version="1.0" standalone="no"?>
<!DOCTYPE svg PUBLIC "-//W3C//DTD SVG 20010904//EN"
 "http://www.w3.org/TR/2001/REC-SVG-20010904/DTD/svg10.dtd">
<svg version="1.0" xmlns="http://www.w3.org/2000/svg"
 width="256.000000pt" height="125.000000pt" viewBox="0 0 256.000000 125.000000"
 preserveAspectRatio="xMidYMid meet">
<metadata>
Created by potrace 1.15, written by Peter Selinger 2001-2017
</metadata>
<g transform="translate(0.000000,125.000000) scale(0.100000,-0.100000)"
fill="#000000" stroke="none">
<path d="M1 873 c0 -352 1 -375 15 -328 9 28 19 95 23 150 5 74 13 113 30 148
31 63 129 146 205 171 31 11 56 23 56 27 0 13 -76 68 -121 89 -49 22 -119 26
-137 8 -16 -16 -16 -70 0 -86 17 -17 44 -15 73 4 23 15 25 15 25 0 0 -22 -47
-39 -87 -31 -40 7 -76 50 -67 79 25 85 148 86 258 1 68 -52 79 -55 204 -64
157 -11 219 -41 237 -113 9 -36 -39 -88 -83 -88 -45 0 -143 55 -215 120 l-66
60 -55 -24 c-72 -32 -159 -114 -191 -181 -26 -56 -43 -135 -29 -135 5 0 28 14
52 30 88 59 225 65 290 13 104 -84 39 -191 -122 -201 -59 -3 -82 0 -140 22
-43 17 -73 23 -79 17 -5 -5 -8 -42 -5 -81 4 -68 6 -74 39 -105 47 -43 108 -52
187 -30 134 39 231 130 446 420 186 249 312 381 412 427 59 27 84 32 166 36
141 6 181 -2 228 -47 33 -31 40 -45 40 -75 0 -61 -78 -125 -88 -74 -2 9 10 24
27 34 89 53 13 142 -129 152 -145 10 -220 -34 -291 -173 -49 -94 -289 -657
-289 -677 0 -9 10 -23 23 -31 21 -15 16 -16 -75 -16 -54 -1 -98 2 -98 7 0 4
15 14 33 22 24 11 41 33 69 90 44 89 93 218 86 226 -3 3 -37 8 -75 11 l-70 6
-62 -82 c-118 -155 -217 -236 -330 -271 -152 -48 -280 -3 -309 107 -7 29 -10
-20 -11 -199 l-1 -238 385 0 385 0 -21 21 c-27 27 -18 54 32 101 49 45 130 77
213 83 l61 5 -60 -18 c-83 -25 -131 -50 -171 -87 -41 -39 -44 -72 -8 -85 53
-21 131 18 217 108 31 33 57 66 57 72 0 6 11 22 24 37 26 28 121 203 110 203
-4 0 -26 -17 -49 -38 -43 -41 -114 -85 -152 -97 -34 -10 -73 34 -73 81 0 58
55 150 145 240 74 76 84 82 140 94 43 9 71 10 98 3 21 -6 40 -6 43 -2 6 10 74
12 74 2 0 -9 -203 -391 -245 -460 l-34 -56 35 -32 c37 -35 49 -95 19 -95 -18
0 -35 31 -35 65 0 44 -27 42 -78 -7 -70 -67 -118 -100 -175 -119 -51 -18 -31
-18 786 -19 l837 0 0 625 0 625 -1280 0 -1280 0 1 -377z m1738 -160 c21 -14
23 -21 19 -77 -12 -196 -246 -396 -354 -303 -23 20 -27 31 -26 71 0 63 45 153
113 229 88 99 175 127 248 80z m216 7 c3 -5 -10 -47 -29 -92 -20 -45 -35 -83
-33 -84 1 -1 25 25 53 59 64 78 122 119 171 121 31 1 38 -2 38 -19 0 -15 -14
-24 -62 -40 -106 -37 -163 -93 -253 -250 -46 -81 -73 -115 -89 -115 -3 0 -12
4 -20 9 -11 7 3 47 68 199 47 110 79 196 75 206 -5 13 1 16 34 16 23 0 44 -4
47 -10z m467 -1 c14 -8 27 -7 48 1 15 6 38 10 49 8 20 -3 17 -9 -30 -83 -59
-90 -119 -211 -119 -237 0 -31 22 -31 67 1 25 18 47 30 49 28 9 -9 -84 -96
-125 -117 -39 -19 -45 -20 -58 -7 -16 16 -20 80 -7 119 5 17 -6 11 -47 -25
-59 -52 -140 -97 -175 -97 -63 0 -68 76 -13 181 42 79 181 212 235 227 53 14
101 14 126 1z"/>
<path d="M1555 657 c-51 -54 -85 -125 -92 -194 -5 -47 -3 -57 17 -78 13 -14
33 -25 44 -25 54 0 144 99 167 184 19 69 14 108 -16 133 -40 35 -72 30 -120
-20z"/>
<path d="M2290 682 c-54 -35 -101 -92 -146 -179 -85 -163 2 -171 148 -14 66
72 122 167 116 198 -6 31 -66 29 -118 -5z"/>
<path d="M953 999 c-90 -106 -213 -265 -213 -278 0 -13 38 -21 98 -21 41 0 54
4 59 18 3 9 37 93 75 185 38 92 68 173 66 179 -2 6 -40 -31 -85 -83z"/>
<path d="M394 1019 c-9 -15 39 -62 110 -110 68 -46 137 -55 156 -20 23 44 -27
100 -113 126 -59 17 -143 20 -153 4z"/>
<path d="M224 729 c-42 -12 -116 -93 -112 -122 5 -33 79 -67 147 -67 135 0
219 113 134 180 -28 22 -110 26 -169 9z"/>
<path d="M1225 692 c-80 -50 -177 -195 -179 -270 -1 -34 1 -37 29 -40 40 -4
97 37 165 119 67 81 109 163 94 187 -16 24 -73 26 -109 4z"/>
</g>
</svg>
